<svg version="1.0" xmlns="http://www.w3.org/2000/svg" width="400" height="400" viewBox="0 0 300 300"><path d="M146.9 13.3c-.8.8-4.5 5-8.4 9.2-3.8 4.2-8.6 9.3-10.5 11.4-1.9 2.1-7.3 7.9-12 13s-10.5 11.4-13 14c-2.5 2.6-8.3 8.9-13 14.1-4.7 5.1-9.6 10.5-11 12-1.4 1.5-6.8 7.3-12 13s-11.5 12.5-14 15.1c-2.5 2.6-7.9 8.4-12 12.9s-9 9.8-10.7 11.7c-1.8 1.9-3.3 3.7-3.3 4.1 0 .4 9.3.7 20.7.7h20.8v131h157v-65c-.1-35.8.3-65.2.7-65.5.4-.3 10.4-.5 22.2-.5 11.9 0 21.6-.2 21.6-.5 0-.8-7.6-9.2-28-30.9-4.2-4.5-22.7-24.6-29-31.4-2.5-2.7-5.6-6.2-7-7.7-4.9-5.4-21.6-23.3-26-28-2.5-2.6-7.7-8.3-11.6-12.6-18.4-20.3-19.9-21.7-21.5-20.1z"/></svg>