<?xml version="1.0" standalone="no"?>
<!DOCTYPE svg PUBLIC "-//W3C//DTD SVG 20010904//EN"
 "http://www.w3.org/TR/2001/REC-SVG-20010904/DTD/svg10.dtd">
<svg version="1.0" xmlns="http://www.w3.org/2000/svg"
 width="300.000000pt" height="300.000000pt" viewBox="0 0 300.000000 300.000000"
 preserveAspectRatio="xMidYMid meet">
<metadata>
Created by potrace 1.14, written by Peter Selinger 2001-2017
</metadata>
<g transform="translate(0.000000,300.000000) scale(0.100000,-0.100000)"
fill="#000000" stroke="none">
<path d="M1469 2867 c-8 -8 -45 -50 -84 -92 -38 -42 -86 -93 -105 -114 -19
-21 -73 -79 -120 -130 -47 -51 -105 -114 -130 -140 -25 -26 -83 -89 -130 -141
-47 -51 -96 -105 -110 -120 -14 -15 -68 -73 -120 -130 -52 -57 -115 -125 -140
-151 -25 -26 -79 -84 -120 -129 -41 -45 -90 -98 -107 -117 -18 -19 -33 -37
-33 -41 0 -4 93 -7 207 -7 l208 0 0 -655 0 -655 785 0 785 0 0 650 c-1 358 3
652 7 655 4 3 104 5 222 5 119 0 216 2 216 5 0 8 -76 92 -280 309 -42 45 -227
246 -290 314 -25 27 -56 62 -70 77 -49 54 -216 233 -260 280 -25 26 -77 83
-116 126 -184 203 -199 217 -215 201z"/>
</g>
</svg>
